<svg xmlns="http://www.w3.org/2000/svg" viewBox="0 0 483.18 151.15"><defs><style>.cls-1{fill:none;}.cls-1,.cls-2{stroke:#404040;stroke-linecap:round;stroke-linejoin:round;stroke-width:1.5px;}.cls-2,.cls-3{fill:#b17f4a;}.cls-4,.cls-7{fill:#1d1d1b;}.cls-5{fill:#1d1d1c;stroke:#1d1d1b;stroke-miterlimit:10;stroke-width:0.5px;}.cls-6{fill:#404040;}.cls-7{font-size:12px;font-family:MyriadPro-Regular, Myriad Pro;}</style></defs><g id="Layer_1" data-name="Layer 1"><polygon class="cls-1" points="78.88 12.79 0.75 54.22 78.88 95.65 157 54.22 78.88 12.79"/><polyline class="cls-1" points="31.37 70.94 31.37 97.28 78.88 122.47 103 109.68"/><polyline class="cls-1" points="78.88 52.92 110.27 69.56 110.27 114.4"/><polygon class="cls-2" points="13.02 60.33 90.32 19.34 78.88 12.79 0.75 54.22 13.02 60.33"/><polygon class="cls-2" points="115.39 132.81 105.16 138.36 105.16 117.65 115.39 112.09 115.39 132.81"/><path class="cls-3" d="M180.29,294.22a9.57,9.57,0,0,1-3.89-.82,6.71,6.71,0,0,1-3.09-2.92,11.91,11.91,0,0,1-1.21-5.92v-15.5h1.21v15.2a11.88,11.88,0,0,0,1,5.34,5.78,5.78,0,0,0,2.58,2.71,7.53,7.53,0,0,0,3.41.79,7.86,7.86,0,0,0,3.49-.79,5.88,5.88,0,0,0,2.64-2.71,11.73,11.73,0,0,0,1-5.34v-15.2h1.14v15.5a11.79,11.79,0,0,1-1.23,5.92,6.79,6.79,0,0,1-3.13,2.92A9.73,9.73,0,0,1,180.29,294.22Z" transform="translate(-43.97 -191.38)"/><path class="cls-3" d="M196.07,293.77V269.06h1.22v11h14v-11h1.22v24.71h-1.22V281.12h-14v12.65Z" transform="translate(-43.97 -191.38)"/><path class="cls-3" d="M220.12,293.77V269.06h6.53a10.45,10.45,0,0,1,5.94,1.48,5.08,5.08,0,0,1,2.18,4.51,5.78,5.78,0,0,1-1,3.39,5.19,5.19,0,0,1-2.94,2v.15a7,7,0,0,1,4,1.89,5.55,5.55,0,0,1,1.52,4.1,6.22,6.22,0,0,1-2.5,5.36,11.22,11.22,0,0,1-6.76,1.83Zm1.22-13.7h4.55q4.1,0,5.88-1.31a4.27,4.27,0,0,0,1.78-3.64,4.16,4.16,0,0,0-1.89-3.89,11,11,0,0,0-5.54-1.12h-4.78Zm0,12.66h5.31a11.47,11.47,0,0,0,6.22-1.46,5.08,5.08,0,0,0,2.28-4.61,4.58,4.58,0,0,0-2.24-4.18,12,12,0,0,0-6.26-1.36h-5.31Z" transform="translate(-43.97 -191.38)"/><path class="cls-4" d="M179.42,311.58l-1.35-3.88h-4.42l-1.36,3.88h-.53l3.88-10.85h.46L180,311.58Zm-4.83-6.51-.77,2.17h4.09l-.76-2.17c-.23-.66-.44-1.28-.65-1.87s-.4-1.23-.6-1.91h-.06c-.2.68-.4,1.32-.6,1.91S174.82,304.41,174.59,305.07Z" transform="translate(-43.97 -191.38)"/><path class="cls-4" d="M184.62,311.58V300.73h.52v10.39h5.1v.46Z" transform="translate(-43.97 -191.38)"/><path class="cls-4" d="M198.16,311.78a4.09,4.09,0,0,1-1.68-.36,2.87,2.87,0,0,1-1.34-1.29,5.24,5.24,0,0,1-.53-2.59v-6.81h.53v6.68a5.38,5.38,0,0,0,.42,2.34,2.6,2.6,0,0,0,1.12,1.19,3.29,3.29,0,0,0,1.48.35,3.38,3.38,0,0,0,1.51-.35,2.56,2.56,0,0,0,1.15-1.19,5.23,5.23,0,0,0,.43-2.34v-6.68h.5v6.81a5.12,5.12,0,0,1-.54,2.59,2.93,2.93,0,0,1-1.35,1.29A4.22,4.22,0,0,1,198.16,311.78Z" transform="translate(-43.97 -191.38)"/><path class="cls-4" d="M207.83,311.58V300.73h.85l2.34,6.58c.15.41.3.82.44,1.23s.29.82.45,1.23H212c.15-.41.3-.82.43-1.23s.27-.82.43-1.23l2.33-6.58H216v10.85h-.52V304c0-.43,0-.9,0-1.41s0-1,0-1.42h-.06l-.84,2.4-2.45,6.77h-.56l-2.46-6.77-.86-2.4h-.06c0,.44,0,.91.05,1.42s0,1,0,1.41v7.56Z" transform="translate(-43.97 -191.38)"/><path class="cls-4" d="M222.13,311.58V300.73h.56l4.8,8,1.25,2.14h.06c0-.53,0-1.05,0-1.55s0-1,0-1.51v-7h.49v10.85h-.56l-4.8-8-1.25-2.13h-.06c0,.5,0,1,.05,1.48s0,1,0,1.48v7.13Z" transform="translate(-43.97 -191.38)"/><path class="cls-4" d="M235.35,311.58V300.73h.52v10.85Z" transform="translate(-43.97 -191.38)"/><path class="cls-4" d="M172.14,326.12V318.2h1.92a3.81,3.81,0,0,1,2.11.49,1.82,1.82,0,0,1,.76,1.67,2,2,0,0,1-.74,1.69,3.32,3.32,0,0,1-2.08.57h-1.58v3.5Zm.39-3.84H174a3.4,3.4,0,0,0,1.92-.44,1.69,1.69,0,0,0,.63-1.48,1.52,1.52,0,0,0-.64-1.43,3.87,3.87,0,0,0-2-.39h-1.38Z" transform="translate(-43.97 -191.38)"/><path class="cls-4" d="M184.77,326.12l-1-2.83h-3.27l-1,2.83h-.39L182,318.2h.34l2.87,7.92Zm-3.57-4.75-.57,1.58h3l-.56-1.58-.48-1.37c-.15-.43-.3-.9-.45-1.39h0c-.14.49-.29,1-.44,1.39Z" transform="translate(-43.97 -191.38)"/><path class="cls-4" d="M188.61,326.12V318.2H189v7.58h3.76v.34Z" transform="translate(-43.97 -191.38)"/><path class="cls-4" d="M196.58,326.12v-7.58H194v-.34h5.59v.34H197v7.58Z" transform="translate(-43.97 -191.38)"/><path class="cls-4" d="M203.23,326.12V318.2h4.28v.34h-3.89v3.33h3.28v.34h-3.28v3.91Z" transform="translate(-43.97 -191.38)"/><path class="cls-4" d="M213.63,326.26a2.88,2.88,0,0,1-2.34-1.12,4.65,4.65,0,0,1-.91-3,4.53,4.53,0,0,1,.91-3,3,3,0,0,1,4.68,0,4.54,4.54,0,0,1,.92,3,4.65,4.65,0,0,1-.92,3A2.88,2.88,0,0,1,213.63,326.26Zm0-.36a2.46,2.46,0,0,0,2.06-1,4.42,4.42,0,0,0,.78-2.73,4.35,4.35,0,0,0-.78-2.72,2.62,2.62,0,0,0-4.12,0,4.35,4.35,0,0,0-.78,2.72,4.42,4.42,0,0,0,.78,2.73A2.46,2.46,0,0,0,213.63,325.9Z" transform="translate(-43.97 -191.38)"/><path class="cls-4" d="M221.26,326.12h-.39V318.2h2.21a3.33,3.33,0,0,1,1.88.47,1.73,1.73,0,0,1,.7,1.57,2,2,0,0,1-.58,1.49,2.53,2.53,0,0,1-1.59.62l2.29,3.77h-.46l-2.26-3.74h-1.8Zm0-4.08h1.68a2.88,2.88,0,0,0,1.71-.44,1.61,1.61,0,0,0,.59-1.36,1.47,1.47,0,0,0-.59-1.32,3.14,3.14,0,0,0-1.71-.38h-1.68Z" transform="translate(-43.97 -191.38)"/><path class="cls-4" d="M229.45,326.12V318.2h.63l1.72,4.8c.12.3.22.6.33.9s.21.6.33.9h0c.11-.3.21-.6.31-.9s.2-.6.32-.9l1.72-4.8h.63v7.92h-.38V320.6c0-.31,0-.65,0-1s0-.71,0-1h0l-.62,1.75-1.81,4.94h-.42l-1.82-4.94-.63-1.75h-.05c0,.32,0,.66,0,1s0,.72,0,1v5.52Z" transform="translate(-43.97 -191.38)"/><line class="cls-5" x1="127.29" y1="123.84" x2="192.31" y2="123.84"/></g><g id="Layer_2" data-name="Layer 2"><path class="cls-3" d="M444.84,243.19a13.83,13.83,0,0,1-5.57-1.18,9.65,9.65,0,0,1-4.43-4.18c-1.16-2-1.73-4.83-1.73-8.48v-22.2h1.73v21.77a16.94,16.94,0,0,0,1.42,7.65,8.35,8.35,0,0,0,3.69,3.88,10.91,10.91,0,0,0,4.89,1.13,11.41,11.41,0,0,0,5-1.13,8.45,8.45,0,0,0,3.77-3.88,16.78,16.78,0,0,0,1.44-7.65V207.15h1.63v22.2c0,3.65-.59,6.47-1.76,8.48a9.77,9.77,0,0,1-4.49,4.18A14,14,0,0,1,444.84,243.19Z" transform="translate(-43.97 -191.38)"/><path class="cls-3" d="M467.44,242.55v-35.4h1.74v15.77h20.09V207.15H491v35.4h-1.74V224.42H469.18v18.13Z" transform="translate(-43.97 -191.38)"/><path class="cls-3" d="M501.88,242.55v-35.4h9.34q5.38,0,8.5,2.12a7.28,7.28,0,0,1,3.12,6.46,8.3,8.3,0,0,1-1.44,4.86,7.41,7.41,0,0,1-4.2,2.86v.22a10,10,0,0,1,5.75,2.71,7.91,7.91,0,0,1,2.18,5.87,8.92,8.92,0,0,1-3.59,7.67q-3.59,2.63-9.67,2.63Zm1.73-19.63h6.52q5.86,0,8.42-1.88a6.07,6.07,0,0,0,2.56-5.2q0-4-2.72-5.58t-7.93-1.61h-6.85Zm0,18.12h7.61c3.77,0,6.74-.69,8.91-2.09s3.26-3.59,3.26-6.59a6.51,6.51,0,0,0-3.21-6q-3.2-2-9-2h-7.61Z" transform="translate(-43.97 -191.38)"/><path class="cls-4" d="M444.18,268l-1.93-5.55h-6.33L434,268h-.76l5.56-15.53h.66L445,268Zm-6.92-9.32-1.1,3.11H442l-1.09-3.11c-.32-.94-.64-1.83-.93-2.68s-.57-1.76-.85-2.73h-.1c-.28,1-.57,1.88-.86,2.73S437.59,257.78,437.26,258.72Z" transform="translate(-43.97 -191.38)"/><path class="cls-4" d="M451.62,268V252.51h.75v14.87h7.3V268Z" transform="translate(-43.97 -191.38)"/><path class="cls-4" d="M471,268.33a6,6,0,0,1-2.42-.52,4.22,4.22,0,0,1-1.91-1.84,7.48,7.48,0,0,1-.76-3.72v-9.74h.76v9.55a7.55,7.55,0,0,0,.61,3.36,3.67,3.67,0,0,0,1.6,1.71,4.78,4.78,0,0,0,2.12.49,5,5,0,0,0,2.16-.49,3.69,3.69,0,0,0,1.64-1.71,7.4,7.4,0,0,0,.62-3.36v-9.55h.71v9.74a7.47,7.47,0,0,1-.77,3.72,4.23,4.23,0,0,1-1.94,1.84A6,6,0,0,1,471,268.33Z" transform="translate(-43.97 -191.38)"/><path class="cls-4" d="M484.86,268V252.51h1.22l3.35,9.41q.33.9.63,1.77c.21.58.42,1.17.64,1.76h.09c.22-.59.42-1.18.61-1.76s.4-1.17.62-1.77l3.34-9.41h1.22V268h-.75V257.22c0-.62,0-1.29,0-2s0-1.41.07-2h-.09l-1.2,3.43-3.51,9.7h-.8l-3.53-9.7-1.22-3.43h-.1c0,.62.06,1.3.07,2s0,1.4,0,2V268Z" transform="translate(-43.97 -191.38)"/><path class="cls-4" d="M505.34,268V252.51h.8L513,263.9,514.8,267h.1c0-.75-.06-1.49-.07-2.21s0-1.45,0-2.17V252.51h.71V268h-.8l-6.88-11.39-1.78-3.06H506c0,.72.06,1.43.07,2.12s0,1.4,0,2.12V268Z" transform="translate(-43.97 -191.38)"/><path class="cls-4" d="M524.26,268V252.51H525V268Z" transform="translate(-43.97 -191.38)"/><path class="cls-4" d="M433.76,288.86V277.52h2.74a5.52,5.52,0,0,1,3,.7,2.62,2.62,0,0,1,1.08,2.39,2.88,2.88,0,0,1-1.05,2.43,4.88,4.88,0,0,1-3,.8h-2.26v5Zm.55-5.5h2.06a4.82,4.82,0,0,0,2.74-.63,2.4,2.4,0,0,0,.91-2.12,2.21,2.21,0,0,0-.92-2.05,5.57,5.57,0,0,0-2.8-.56h-2Z" transform="translate(-43.97 -191.38)"/><path class="cls-4" d="M451.84,288.86l-1.42-4.05h-4.68l-1.44,4.05h-.56l4.11-11.34h.48l4.11,11.34Zm-5.11-6.8-.82,2.26h4.33l-.79-2.26c-.25-.69-.48-1.34-.69-2s-.43-1.29-.64-2h-.07c-.2.71-.42,1.38-.63,2S447,281.37,446.73,282.06Z" transform="translate(-43.97 -191.38)"/><path class="cls-4" d="M457.34,288.86V277.52h.56v10.86h5.39v.48Z" transform="translate(-43.97 -191.38)"/><path class="cls-4" d="M468.75,288.86V278H465v-.48h8V278h-3.72v10.86Z" transform="translate(-43.97 -191.38)"/><path class="cls-4" d="M478.28,288.86V277.52h6.12V278h-5.56v4.78h4.69v.48h-4.69v5.6Z" transform="translate(-43.97 -191.38)"/><path class="cls-4" d="M493.17,289.07a4.13,4.13,0,0,1-3.35-1.62,6.56,6.56,0,0,1-1.31-4.29,6.42,6.42,0,0,1,1.31-4.26,4.32,4.32,0,0,1,6.7,0,6.47,6.47,0,0,1,1.31,4.26,6.62,6.62,0,0,1-1.31,4.29A4.13,4.13,0,0,1,493.17,289.07Zm0-.52a3.52,3.52,0,0,0,2.95-1.48,6.34,6.34,0,0,0,1.12-3.91,6.24,6.24,0,0,0-1.12-3.89,3.74,3.74,0,0,0-5.9,0,6.18,6.18,0,0,0-1.12,3.89,6.28,6.28,0,0,0,1.12,3.91A3.52,3.52,0,0,0,493.17,288.55Z" transform="translate(-43.97 -191.38)"/><path class="cls-4" d="M504.09,288.86h-.56V277.52h3.17a4.75,4.75,0,0,1,2.7.67,2.52,2.52,0,0,1,1,2.25,2.76,2.76,0,0,1-.83,2.13,3.64,3.64,0,0,1-2.27.9l3.27,5.39h-.66l-3.24-5.36h-2.57Zm0-5.84h2.4a4,4,0,0,0,2.45-.64,2.26,2.26,0,0,0,.86-1.94,2.08,2.08,0,0,0-.86-1.89,4.47,4.47,0,0,0-2.45-.55h-2.4Z" transform="translate(-43.97 -191.38)"/><path class="cls-4" d="M515.81,288.86V277.52h.91l2.47,6.87.47,1.29c.15.43.3.86.47,1.29h.07q.24-.64.45-1.29t.45-1.29l2.47-6.87h.9v11.34h-.55V281c0-.45,0-.94,0-1.47s0-1,0-1.49h-.07l-.89,2.51-2.59,7.08h-.59l-2.61-7.08-.9-2.51h-.07c0,.46,0,1,.05,1.49s0,1,0,1.47v7.9Z" transform="translate(-43.97 -191.38)"/><line class="cls-5" x1="388.6" y1="81.87" x2="481.7" y2="81.87"/><polygon class="cls-2" points="448.13 107.05 448.13 135.38 435.15 123.57 422.17 135.38 422.17 107.05 448.13 107.05"/><line class="cls-1" x1="482.43" y1="106.41" x2="387.87" y2="106.41"/></g><g id="Layer_4" data-name="Layer 4"><rect class="cls-3" x="247.54" width="45.96" height="45.96" rx="10.72"/><rect class="cls-6" x="247.54" y="51.83" width="45.96" height="45.96" rx="10.72"/><rect class="cls-4" x="247.54" y="105.19" width="45.96" height="45.96" rx="10.72"/><text class="cls-7" transform="translate(298.73 26.5)">b17f4a</text><text class="cls-7" transform="translate(298.73 78.33)">04040</text><text class="cls-7" transform="translate(298.73 131.69)">1d1d1b</text></g></svg>